<svg viewBox="0 0 22 22" fill="none" xmlns="http://www.w3.org/2000/svg">
    <g clip-path="url(#clip0)">
        <path
            d="M15.5 2.5C14.012 2.5 12.634 2.968 11.5 3.76C12.178 4.233 13.5 5.16469 14.197 7.5C14.197 7.5 10.9095 7.5 8.803 7.5C9 6 10.822 4.233 11.5 3.76C10.366 2.968 8.988 2.5 7.5 2.5C3.634 2.5 0.5 5.634 0.5 9.5C0.5 13.366 3.634 16.5 7.5 16.5C8.988 16.5 10.366 16.032 11.5 15.24C10.822 14.767 10.5 14.5 9.759 13.5H13.242C12.768 14.177 12.178 14.767 11.501 15.24C12.635 16.032 14.013 16.5 15.501 16.5C19.367 16.5 22.501 13.366 22.501 9.5C22.5 5.634 19.366 2.5 15.5 2.5ZM14.197 7.5C14.294 7.825 14.5 9 14.423 10.5C12.1404 10.5 8.578 10.5 8.578 10.5C8.5 9.5 8.501 8 8.803 7.5C10.9095 7.5 14.197 7.5 14.197 7.5ZM8.578 10.5C8.578 10.5 12.1404 10.5 14.423 10.5C14.374 10.843 14.423 11.8132 13.242 13.5H9.759C9.5 13 8.46854 11.2485 8.578 10.5Z"
            fill="black" />
    </g>
    <defs>
        <clipPath id="clip0">
            <rect width="22" height="22" fill="white" />
        </clipPath>
    </defs>
</svg>